<svg width="76" height="76" viewBox="0 0 76 76" fill="none" xmlns="http://www.w3.org/2000/svg">
<circle cx="38" cy="38" r="38" fill="#333333"/>
<path d="M38 26.1875C40.5348 26.1875 42.5938 24.1285 42.5938 21.5938C42.5938 19.059 40.5348 17 38 17C35.4652 17 33.4062 19.059 33.4062 21.5938C33.4062 24.1285 35.4652 26.1875 38 26.1875Z" fill="white"/>
<path d="M52.4379 26.2527L52.3969 26.261L52.3641 26.2692L52.118 26.343C50.5922 26.7942 43.1848 28.8777 37.9594 28.8777C33.1113 28.8777 26.3684 27.0731 24.2109 26.4578C23.9977 26.3758 23.7762 26.302 23.5547 26.2445C21.9961 25.8344 20.9297 27.4176 20.9297 28.8613C20.9297 30.2969 22.2176 30.9777 23.5137 31.4699V31.4945L31.323 33.9309C32.1187 34.2344 32.332 34.5461 32.4387 34.8168C32.775 35.6863 32.5043 37.409 32.4141 38.0078L31.9383 41.6992L29.3051 56.1613L29.2805 56.2844L29.2641 56.391C29.0754 57.7117 30.0434 58.9996 31.8891 58.9996C33.4969 58.9996 34.2105 57.8922 34.5141 56.3828C34.5141 56.3828 36.8109 43.4547 37.9594 43.4547C39.1078 43.4547 41.4703 56.3828 41.4703 56.3828C41.782 57.8922 42.4875 58.9996 44.0953 58.9996C45.941 58.9996 46.9172 57.7117 46.7203 56.3828C46.7039 56.268 46.6793 56.1613 46.6547 56.0465L43.9887 41.7156L43.5129 38.0242C43.1684 35.875 43.4473 35.1613 43.5375 34.9973C43.5375 34.9973 43.5457 34.9891 43.5457 34.9809C43.6359 34.8168 44.0379 34.4477 44.9812 34.0949L52.3066 31.5356C52.3477 31.5274 52.3969 31.511 52.4379 31.4945C53.7504 31.0024 55.0629 30.3215 55.0629 28.8777C55.0629 27.434 53.9965 25.8426 52.4379 26.2527Z" fill="white"/>
</svg>
