<svg width="76" height="76" viewBox="0 0 76 76" fill="none" xmlns="http://www.w3.org/2000/svg">
<circle cx="38" cy="38" r="38" fill="#333333"/>
<g clip-path="url(#clip0_183_727)">
<path d="M38 17C26.4021 17 17 26.4021 17 38C17 49.5979 26.4021 59 38 59C49.5979 59 59 49.5979 59 38C58.987 26.4076 49.5924 17.013 38 17ZM38.7495 23.0542L46.05 20.136C46.8785 20.5109 47.68 20.943 48.4487 21.429L48.4679 21.441C49.2233 21.9196 49.9452 22.449 50.6287 23.0256L50.6875 23.0768C50.9938 23.3378 51.2921 23.6081 51.582 23.8872C51.6186 23.9231 51.6568 23.9572 51.6934 23.9939C51.9971 24.2904 52.2915 24.5964 52.5763 24.9112C52.5999 24.9379 52.6224 24.9659 52.646 24.9926C52.8958 25.2725 53.1361 25.5623 53.3692 25.857C53.4253 25.927 53.4814 25.9971 53.5357 26.0672C53.7886 26.3946 54.0333 26.7278 54.2644 27.0717L52.809 33.2583L45.6487 35.6453L38.7513 30.1264L38.7495 23.0542ZM22.4636 26.0712C22.5179 26.0012 22.5733 25.9312 22.6294 25.8614C22.8595 25.5695 23.0978 25.2843 23.3441 25.0059C23.3708 24.9765 23.3954 24.9464 23.4217 24.917C23.7045 24.6016 23.9978 24.2958 24.301 24C24.3359 23.9659 24.3707 23.93 24.4073 23.8985C24.6949 23.6212 24.9907 23.3525 25.2943 23.0929L25.3643 23.0341C26.0417 22.4617 26.7568 21.9355 27.5047 21.4591L27.532 21.4416C28.2962 20.9567 29.0929 20.5251 29.9165 20.15L37.2505 23.0542V30.1243L30.3527 35.6423L23.1924 33.2597L21.737 27.0731C21.969 26.7319 22.2113 26.3978 22.4636 26.0712ZM21.6201 48.7416C21.4141 48.4277 21.2173 48.1079 21.0298 47.7826L20.9843 47.7039C20.7977 47.38 20.621 47.0505 20.4545 46.7158L20.4487 46.7053C20.098 46.0012 19.7901 45.2764 19.5269 44.5351V44.5283C19.4025 44.1783 19.289 43.8198 19.1841 43.4592L19.1461 43.3262C19.0497 42.9862 18.9626 42.6436 18.885 42.2988C18.8782 42.2649 18.8696 42.2328 18.8628 42.1993C18.6909 41.4173 18.5674 40.6255 18.4929 39.8283L22.7664 34.7003L29.8772 37.0703L31.941 45.3247L28.55 49.8364L21.6201 48.7416ZM42.6614 57.035C42.3114 57.1218 41.9522 57.1967 41.593 57.264C41.5427 57.2739 41.4915 57.2821 41.4412 57.2914C41.1353 57.3461 40.826 57.3929 40.516 57.4311C40.4333 57.4417 40.3512 57.453 40.2689 57.463C39.981 57.4964 39.6905 57.5217 39.3993 57.5426C39.3077 57.5487 39.2171 57.558 39.1255 57.5638C38.7533 57.5867 38.378 57.6 38 57.6C37.6538 57.6 37.3096 57.5908 36.9675 57.5726C36.9261 57.5726 36.8864 57.5658 36.845 57.5627C36.5405 57.5453 36.2373 57.5225 35.9348 57.493L35.9 57.4865C35.2372 57.4146 34.5784 57.3096 33.9261 57.1717L29.7856 50.6888L33.1233 46.2383H42.8767L46.2691 50.7183L42.6614 57.035ZM57.1424 42.2C57.1352 42.2335 57.127 42.266 57.1198 42.2995C57.0418 42.6442 56.9547 42.9868 56.8586 43.3269L56.821 43.4599C56.7168 43.8195 56.6024 44.176 56.4779 44.529V44.5358C56.2148 45.2772 55.907 46.0019 55.5561 46.7059L55.5502 46.7165C55.3832 47.0509 55.2066 47.3804 55.0205 47.7046L54.975 47.7833C54.789 48.1088 54.5925 48.4282 54.3858 48.741L47.4794 49.8299L44.0649 45.3219L46.1276 37.0696L53.2383 34.6996L57.5118 39.8276C57.4377 40.6253 57.3143 41.4176 57.1424 42.2Z" fill="white"/>
</g>
<defs>
<clipPath id="clip0_183_727">
<rect width="42" height="42" fill="white" transform="translate(17 17)"/>
</clipPath>
</defs>
</svg>
