<svg width="76" height="76" viewBox="0 0 76 76" fill="none" xmlns="http://www.w3.org/2000/svg">
<circle cx="38" cy="38" r="38" fill="#333333"/>
<path d="M40.4609 30.6172C40.4609 29.9382 39.9094 29.3867 39.2305 29.3867H36.7695V31.8477H39.2305C39.9094 31.8477 40.4609 31.2962 40.4609 30.6172Z" fill="white"/>
<path d="M38 41.6914C42.7488 41.6914 46.6133 37.8269 46.6133 33.0781C46.6133 28.3293 42.7488 24.4648 38 24.4648C33.2512 24.4648 29.3867 28.3293 29.3867 33.0781C29.3867 37.8269 33.2512 41.6914 38 41.6914ZM34.3086 26.9258H39.2305C41.2659 26.9258 42.9219 28.5818 42.9219 30.6172C42.9219 32.6525 41.2658 34.3086 39.2305 34.3086H36.7695V39.2305H34.3086V26.9258Z" fill="white"/>
<path d="M38 59L50.7888 42.6864L50.8033 42.6684C52.892 39.8854 53.9961 36.569 53.9961 33.0781C53.9961 24.2581 46.82 17 38 17C29.18 17 22.0039 24.2581 22.0039 33.0781C22.0039 36.569 23.108 39.8854 25.2112 42.6864L38 59ZM38 22.0039C44.1065 22.0039 49.0742 26.9716 49.0742 33.0781C49.0742 39.1846 44.1065 44.1523 38 44.1523C31.8935 44.1523 26.9258 39.1846 26.9258 33.0781C26.9258 26.9716 31.8935 22.0039 38 22.0039Z" fill="white"/>
</svg>
