<svg width="76" height="76" viewBox="0 0 76 76" fill="none" xmlns="http://www.w3.org/2000/svg">
<circle cx="38" cy="38" r="38" fill="#333333"/>
<g clip-path="url(#clip0_183_744)">
<path d="M32.3833 45.6261V45.0412H30.1626C27.0185 45.0412 27.0185 40.2831 30.1626 40.2831H45.8368C48.9809 40.2831 48.9807 45.0412 45.8368 45.0412H43.616V45.6261C43.616 46.6843 42.755 47.5452 41.6968 47.5452H34.3025C33.2443 47.5452 32.3833 46.6843 32.3833 45.6261ZM58.3844 59H17.6149C16.802 59 16.8011 57.7695 17.6149 57.7695H19.2479L20.4163 48.372V48.3718L19.1811 38.819C19.0768 38.0128 20.297 37.8541 20.4014 38.6613L21.577 47.7535H28.3938C30.1362 47.7535 31.6472 48.9348 32.0672 50.6254L33.8436 57.7695H34.6896L35.7962 54.379C35.8364 54.2556 35.9147 54.1482 36.0198 54.072C36.1248 53.9958 36.2513 53.9547 36.381 53.9548H37.3845V48.7756H38.6149V53.9548H39.6182C39.748 53.9547 39.8745 53.9958 39.9795 54.072C40.0846 54.1482 40.1628 54.2556 40.2031 54.379L41.3097 57.7695H42.1558L43.9322 50.6254C44.1351 49.8049 44.6072 49.076 45.2731 48.5554C45.939 48.0348 46.7603 47.7524 47.6055 47.7535H54.4223L55.5979 38.6612C55.7021 37.8554 56.9227 38.0117 56.8183 38.819L55.5831 48.372V48.3721L56.7515 57.7695H58.3844C59.1972 57.7695 59.1985 59 58.3844 59ZM43.4238 57.7695H55.512L55.0753 54.2545H44.2972L43.4238 57.7695ZM20.4874 57.7695H32.5755L31.7021 54.2545H20.9241L20.4874 57.7695ZM35.9839 57.7695H37.3845V55.1852H36.8275L35.9839 57.7695ZM40.0154 57.7695L39.1719 55.1852H38.6149V57.7695H40.0154ZM23.3842 27.5008C23.3842 20.6643 28.2925 17 33.1853 17H42.8141C47.788 17 52.6152 20.7354 52.6152 27.5008C52.6152 30.8238 48.3132 32.1881 46.3997 29.4548C45.0367 31.4017 42.1642 31.4044 40.7994 29.4548C40.2938 30.1779 39.5155 30.6961 38.6149 30.8606V39.0525H37.3845V30.8606C36.4839 30.6961 35.7055 30.1779 35.2 29.4548C33.8345 31.4051 30.9606 31.4012 29.5997 29.4548C27.688 32.1853 23.3842 30.8294 23.3842 27.5008ZM40.7535 18.3978C41.605 19.559 41.4146 20.0332 41.4146 26.1859H45.7844C45.7844 22.2405 44.5666 19.2821 40.7535 18.3978ZM30.2149 26.1859H34.5847C34.5847 20.0507 34.3906 19.5641 35.2459 18.3978C31.4332 19.282 30.2149 22.2405 30.2149 26.1859ZM34.5847 27.5008V27.4163H30.2149V27.5008C30.2149 30.3889 34.5847 30.3887 34.5847 27.5008ZM45.7844 27.5008V27.4163H41.4146V27.5008C41.4146 30.3882 45.7844 30.3896 45.7844 27.5008Z" fill="white"/>
</g>
<defs>
<clipPath id="clip0_183_744">
<rect width="42" height="42" fill="white" transform="translate(17 17)"/>
</clipPath>
</defs>
</svg>
