<svg width="76" height="76" viewBox="0 0 76 76" fill="none" xmlns="http://www.w3.org/2000/svg">
<circle cx="38" cy="38" r="38" fill="#333333"/>
<path d="M57.9319 51.9365H18.0723C17.9635 51.9365 17.8592 51.8933 17.7822 51.8164C17.7053 51.7395 17.6621 51.6351 17.6621 51.5264C17.6621 51.4176 17.7053 51.3133 17.7822 51.2363C17.8592 51.1594 17.9635 51.1162 18.0723 51.1162H57.9319C58.0407 51.1162 58.145 51.1594 58.2219 51.2363C58.2989 51.3133 58.3421 51.4176 58.3421 51.5264C58.3421 51.6351 58.2989 51.7395 58.2219 51.8164C58.145 51.8933 58.0407 51.9365 57.9319 51.9365Z" fill="white"/>
<path d="M33.1809 37.6405L32.9952 37.0827C31.9682 34.4032 30.7968 31.3464 30.7131 28.287C30.6625 26.5151 29.6736 24.632 27.8814 24.148C27.5019 24.0568 27.1136 24.0072 26.7234 24H26.6742C26.3035 24.0062 25.9351 24.0596 25.5779 24.1591C23.8343 24.7248 22.8423 26.5279 22.7918 28.2866C22.7085 31.3454 21.5371 34.4022 20.5038 37.0991L20.324 37.6415C19.5257 40.1585 19.7055 42.478 20.83 44.1728C21.7887 45.6182 23.3772 46.4237 25.2751 46.6879C25.7162 46.7404 26.1604 46.7644 26.6046 46.7597V43.8827C25.8006 43.7989 25.0551 43.4233 24.5093 42.827C23.9634 42.2307 23.655 41.4551 23.6423 40.6468V40.1346C23.6423 40.0258 23.6855 39.9215 23.7624 39.8445C23.8394 39.7676 23.9437 39.7244 24.0525 39.7244C24.1612 39.7244 24.2656 39.7676 24.3425 39.8445C24.4194 39.9215 24.4626 40.0258 24.4626 40.1346V40.6484C24.4742 41.2391 24.6964 41.8063 25.0891 42.2478C25.4818 42.6892 26.0193 42.9759 26.6046 43.0562V36.8655C26.0487 36.7418 25.5528 36.4292 25.2016 35.9808C24.8503 35.5325 24.6655 34.9762 24.6785 34.4068V34.0305C24.6785 33.9217 24.7217 33.8173 24.7987 33.7404C24.8756 33.6635 24.9799 33.6203 25.0887 33.6203C25.1975 33.6203 25.3018 33.6635 25.3787 33.7404C25.4556 33.8173 25.4988 33.9217 25.4988 34.0305V34.4068C25.4896 34.7573 25.5916 35.1018 25.7904 35.3907C25.9891 35.6795 26.2743 35.898 26.605 36.0146V33.6981C26.605 33.5893 26.6482 33.485 26.7251 33.408C26.802 33.3311 26.9063 33.2879 27.0151 33.2879C27.1239 33.2879 27.2282 33.3311 27.3051 33.408C27.3821 33.485 27.4253 33.5893 27.4253 33.6981V40.3334C27.9015 40.2032 28.3201 39.9165 28.6136 39.5194C28.907 39.1223 29.0583 38.638 29.0429 38.1445V37.668C29.0429 37.5593 29.0861 37.4549 29.1631 37.378C29.24 37.3011 29.3443 37.2579 29.4531 37.2579C29.5619 37.2579 29.6662 37.3011 29.7431 37.378C29.82 37.4549 29.8632 37.5593 29.8632 37.668V38.1445C29.8809 38.8551 29.6455 39.5488 29.1989 40.1018C28.7523 40.6548 28.1237 41.031 27.4253 41.1632L27.423 51.5257H28.2433V46.6885H28.2475C29.128 46.6331 29.9843 46.3779 30.7515 45.9424C31.5187 45.5068 32.1767 44.9024 32.6756 44.1748C33.8004 42.479 33.9796 40.1588 33.1809 37.6405ZM56.2373 45.2973H52.9127V41.6078H55.853C56.0271 41.6078 56.194 41.5387 56.3171 41.4156C56.4401 41.2926 56.5093 41.1256 56.5093 40.9516V38.7584C56.5093 38.5844 56.4401 38.4174 56.3171 38.2944C56.194 38.1713 56.0271 38.1022 55.853 38.1022H38.719C38.545 38.1022 38.378 38.1713 38.255 38.2944C38.1319 38.4174 38.0628 38.5844 38.0628 38.7584V40.9516C38.0628 41.1256 38.1319 41.2926 38.255 41.4156C38.378 41.5387 38.545 41.6078 38.719 41.6078H41.6593V45.2973H38.214C38.0695 45.2948 37.9259 45.3211 37.7916 45.3747C37.6573 45.4282 37.5351 45.508 37.432 45.6093C37.3289 45.7107 37.247 45.8315 37.1911 45.9648C37.1352 46.0982 37.1064 46.2413 37.1064 46.3858C37.1064 46.5304 37.1352 46.6735 37.1911 46.8068C37.247 46.9402 37.3289 47.061 37.432 47.1623C37.5351 47.2637 37.6573 47.3434 37.7916 47.397C37.9259 47.4506 38.0695 47.4769 38.214 47.4744H39.3159V51.5267C39.3159 51.6355 39.3591 51.7398 39.436 51.8168C39.5129 51.8937 39.6172 51.9369 39.726 51.9369C39.8348 51.9369 39.9391 51.8937 40.016 51.8168C40.093 51.7398 40.1362 51.6355 40.1362 51.5267V47.4744H54.4362V51.5267C54.4362 51.6355 54.4794 51.7398 54.5563 51.8168C54.6332 51.8937 54.7376 51.9369 54.8463 51.9369C54.9551 51.9369 55.0594 51.8937 55.1364 51.8168C55.2133 51.7398 55.2565 51.6355 55.2565 51.5267V47.4744H56.2373C56.3818 47.4769 56.5254 47.4506 56.6597 47.397C56.7939 47.3434 56.9162 47.2637 57.0193 47.1623C57.1224 47.061 57.2043 46.9402 57.2602 46.8068C57.3161 46.6735 57.3449 46.5304 57.3449 46.3858C57.3449 46.2413 57.3161 46.0982 57.2602 45.9648C57.2043 45.8315 57.1224 45.7107 57.0193 45.6093C56.9162 45.508 56.7939 45.4282 56.6597 45.3747C56.5254 45.3211 56.3818 45.2948 56.2373 45.2973ZM42.4796 41.6078H52.0937V45.2973H42.4796V41.6078Z" fill="white"/>
</svg>
