<svg width="76" height="76" viewBox="0 0 76 76" fill="none" xmlns="http://www.w3.org/2000/svg">
<circle cx="38" cy="38" r="38" fill="#333333"/>
<path d="M54.4648 35.4274C51.0307 32.471 45.5418 33.4101 43.5448 37.5537C44.6562 37.775 45.7289 38.1589 46.7283 38.6929C46.8041 38.7333 46.8711 38.7882 46.9257 38.8545C46.9802 38.9208 47.0211 38.9972 47.0462 39.0793C47.0712 39.1614 47.0798 39.2476 47.0715 39.3331C47.0631 39.4185 47.0381 39.5015 46.9977 39.5772C46.9573 39.653 46.9024 39.72 46.8361 39.7746C46.7698 39.8291 46.6935 39.87 46.6113 39.8951C46.5292 39.9201 46.443 39.9287 46.3576 39.9204C46.2721 39.912 46.1892 39.887 46.1134 39.8466C43.304 38.307 39.3973 38.0262 37.5402 41.3862L36.7461 40.1918L34.6855 37.0746C33.6302 35.5475 33.1905 32.7283 35.0727 31.6343C36.2245 30.9678 37.1259 29.942 37.6386 28.714H40.7098C40.828 31.0109 41.563 33.2552 43.0198 33.2552C43.2581 33.2244 45.9159 33.3195 46.1108 33.2027C48.8211 32.4769 48.8277 22.9567 45.763 22.834H43.0198C41.5564 22.834 40.8214 25.098 40.7033 27.4015H37.7173L37.1398 24.8487C37.0613 24.5678 36.9167 24.3098 36.718 24.0963C36.5194 23.8828 36.2725 23.72 35.998 23.6215C34.6139 23.1076 33.5994 24.6045 32.2245 24.619L31.1811 24.7568C29.8312 24.7555 29.2228 26.3928 28.8186 27.4015H27.0073C26.8958 25.1046 26.1608 22.8471 24.6973 22.8471H21.9542C18.7977 22.9875 18.8502 33.1811 21.9542 33.2684C22.0172 33.2638 24.6468 33.2716 24.7827 33.2684C25.9836 33.1437 26.5729 31.7485 26.8695 30.0265H25.5373C25.3077 31.234 24.9073 31.9099 24.7039 31.9559C24.3955 31.8902 23.6802 30.4859 23.6802 28.0577C23.6802 25.6362 24.3955 24.2252 24.6973 24.1596C24.973 24.2187 25.5833 25.3802 25.6948 27.4015H24.7892C24.6152 27.4015 24.4483 27.4706 24.3252 27.5937C24.2021 27.7168 24.133 27.8837 24.133 28.0577C24.133 28.2318 24.2021 28.3987 24.3252 28.5218C24.4483 28.6448 24.6152 28.714 24.7892 28.714C25.8628 28.712 27.4136 28.7153 28.497 28.714C28.3869 29.3568 28.2378 29.9923 28.0508 30.6171C27.1977 33.6162 26.9352 37.8949 26.863 40.953C26.8068 43.3231 27.2682 45.6768 28.2148 47.8502L29.8752 51.6959C30.0579 52.1006 30.3466 52.4486 30.7107 52.7029C31.0748 52.9572 31.5008 53.1085 31.9437 53.1407C32.3867 53.173 32.8301 53.0851 33.2272 52.8862C33.6243 52.6873 33.9604 52.3849 34.1998 52.0109C34.2183 51.9813 34.2447 51.9576 34.2761 51.9425C34.3074 51.9274 34.3425 51.9215 34.377 51.9255C43.4858 52.818 51.1508 46.8068 52.1286 46.0062C52.857 45.7371 56.4073 44.2474 56.7814 40.6184C56.862 39.6282 56.692 38.6337 56.2872 37.7265C55.8823 36.8194 55.2556 36.0287 54.4648 35.4274ZM45.763 24.1465C46.0648 24.2121 46.7802 25.6165 46.7802 28.0446C46.7802 30.4662 46.0648 31.8771 45.7695 31.9427C45.4677 31.8771 44.7523 30.4662 44.7523 28.0446C44.7523 25.6165 45.4677 24.2121 45.763 24.1465Z" fill="#fff"/>
<path d="M46.4189 28.2153V27.874C46.4189 27.7 46.3498 27.5331 46.2267 27.41C46.1037 27.2869 45.9367 27.2178 45.7627 27.2178C45.5886 27.2178 45.4217 27.2869 45.2987 27.41C45.1756 27.5331 45.1064 27.7 45.1064 27.874V28.2153C45.1064 28.3893 45.1756 28.5562 45.2987 28.6793C45.4217 28.8024 45.5886 28.8715 45.7627 28.8715C45.9367 28.8715 46.1037 28.8024 46.2267 28.6793C46.3498 28.5562 46.4189 28.3893 46.4189 28.2153Z" fill="#82A93C"/>
</svg>
