<svg width="56" height="56" viewBox="0 0 56 56" fill="none" xmlns="http://www.w3.org/2000/svg">
<path d="M28 28.823C17.6549 28.823 8.32366 27.3389 0 24.3772V18.9407C0 16.2118 2.21222 13.9995 4.94112 13.9995H14.8235V20.5877C14.8235 21.4974 15.5609 22.2348 16.4706 22.2348C17.3802 22.2348 18.1176 21.4974 18.1176 20.5877V13.9995H37.8824V20.5877C37.8824 21.4974 38.6198 22.2348 39.5294 22.2348C40.4391 22.2348 41.1765 21.4974 41.1765 20.5877V13.9995H51.0589C53.7878 13.9995 56 16.2118 56 18.9407V24.3772C47.6763 27.3389 38.3451 28.823 28 28.823ZM56 46.9408C56 49.6697 53.7878 51.8819 51.0589 51.8819H4.94112C2.21222 51.8819 0 49.6697 0 46.9408V27.8636C8.40809 30.7012 17.7432 32.1173 28 32.1173C38.2568 32.1173 47.5919 30.7013 56 27.8636V46.9408ZM23.8824 40.3525H32.1176C33.0273 40.3525 33.7647 39.6151 33.7647 38.7054C33.7647 37.7957 33.0273 37.0583 32.1176 37.0583H23.8824C22.9727 37.0583 22.2353 37.7957 22.2353 38.7054C22.2353 39.6151 22.9727 40.3525 23.8824 40.3525ZM18.1176 13.9995H14.8235V10.7054C14.8235 7.06681 17.7731 4.11719 21.4117 4.11719H34.5882C38.2268 4.11719 41.1764 7.06681 41.1764 10.7054V13.9995H37.8822V10.7054C37.8822 8.88605 36.4074 7.41123 34.5881 7.41123H21.4118C19.5926 7.41123 18.1176 8.88605 18.1176 10.7054V13.9995Z" fill="#82A93C"/>
</svg>
