<svg width="60" height="60" viewBox="0 0 60 60" fill="none" xmlns="http://www.w3.org/2000/svg">
<circle cx="30" cy="30" r="30" fill="#82A93C"/>
<path d="M36.6014 34.3035H23.3987C18.2968 34.3035 14.1611 38.4384 14.1611 43.5403V47.28H45.8383V43.5403C45.8383 38.4384 41.7026 34.3027 36.6007 34.3027L36.6014 34.3035Z" fill="white"/>
<path d="M29.9995 32.5013C34.4789 32.5013 38.1103 28.8699 38.1103 24.3905C38.1103 19.911 34.4789 16.2797 29.9995 16.2797C25.52 16.2797 21.8887 19.911 21.8887 24.3905C21.8887 28.8699 25.52 32.5013 29.9995 32.5013Z" fill="white"/>
<path d="M19.6392 28.1028C19.6154 29.1511 19.8148 30.7336 21.0216 31.8352C20.9961 31.9351 20.9825 32.0375 20.9812 32.1405C20.9812 32.399 21.0579 32.6516 21.2015 32.8665C21.3451 33.0815 21.5492 33.2489 21.788 33.3479C22.0267 33.4468 22.2895 33.4726 22.543 33.4222C22.7965 33.3718 23.0293 33.2473 23.2121 33.0646C23.3949 32.8818 23.5193 32.649 23.5697 32.3955C23.6202 32.142 23.5943 31.8792 23.4954 31.6404C23.3965 31.4017 23.229 31.1976 23.0141 31.054C22.7992 30.9104 22.5465 30.8337 22.288 30.8337C21.9403 30.8337 21.6256 30.972 21.3909 31.1937C20.4427 30.2433 20.3131 28.9192 20.3498 28.0531C20.6392 27.9604 20.8918 27.7783 21.0712 27.533C21.2507 27.2877 21.3477 26.9919 21.3484 26.688V25.2465C21.3484 24.6453 20.9812 24.1305 20.4578 23.9145C20.9676 18.5851 25.0442 14.4321 30 14.4321C34.9557 14.4321 39.0324 18.5851 39.5421 23.9145C39.2785 24.0235 39.0532 24.2083 38.8947 24.4454C38.7361 24.6825 38.6515 24.9613 38.6515 25.2465V26.688C38.6599 27.0648 38.8155 27.4233 39.085 27.6868C39.3545 27.9504 39.7164 28.0979 40.0933 28.0979C40.4702 28.0979 40.8321 27.9504 41.1016 27.6868C41.3711 27.4233 41.5267 27.0648 41.5351 26.688V25.2465C41.5351 24.5273 41.0073 23.9361 40.3197 23.8274C40.3377 23.5805 40.3629 23.3349 40.3629 23.0837C40.3636 17.3597 35.724 12.72 30 12.72C24.276 12.72 19.6363 17.3597 19.6363 23.0837C19.6363 23.3357 19.6622 23.5805 19.6802 23.8274C19.342 23.8805 19.0338 24.0525 18.811 24.3125C18.5882 24.5725 18.4655 24.9034 18.4648 25.2458V26.688C18.4648 27.3928 18.9717 27.9768 19.6392 28.1028Z" fill="white"/>
</svg>
