<svg width="76" height="76" viewBox="0 0 76 76" fill="none" xmlns="http://www.w3.org/2000/svg">
<circle cx="38" cy="38" r="38" fill="#333333"/>
<path d="M50.5996 52.7002H52.7003V54.8002H50.5996V52.7002Z" fill="white"/>
<path d="M48.4832 44.9348L47.5732 45.8448C47.4392 45.9786 47.2794 46.0839 47.1035 46.1542V57.6006H55.5C55.6857 57.6006 55.8637 57.5268 55.995 57.3956C56.1263 57.2643 56.2 57.0862 56.2 56.9006V43.6006H48.85C48.8775 43.7051 48.893 43.8124 48.8962 43.9205C48.9001 44.1083 48.8659 44.295 48.7957 44.4692C48.7254 44.6434 48.6205 44.8015 48.4874 44.9341L48.4832 44.9348ZM49.2 46.4006C49.2 46.0293 49.3475 45.6732 49.6101 45.4106C49.8726 45.1481 50.2287 45.0006 50.6 45.0006H52.7C53.0713 45.0006 53.4274 45.1481 53.69 45.4106C53.9525 45.6732 54.1 46.0293 54.1 46.4006V48.5006C54.1 48.8719 53.9525 49.228 53.69 49.4905C53.4274 49.7531 53.0713 49.9006 52.7 49.9006H50.6C50.2287 49.9006 49.8726 49.7531 49.6101 49.4905C49.3475 49.228 49.2 48.8719 49.2 48.5006V46.4006ZM49.2 52.7006C49.2 52.3293 49.3475 51.9732 49.6101 51.7106C49.8726 51.4481 50.2287 51.3006 50.6 51.3006H52.7C53.0713 51.3006 53.4274 51.4481 53.69 51.7106C53.9525 51.9732 54.1 52.3293 54.1 52.7006V54.8006C54.1 55.1719 53.9525 55.528 53.69 55.7905C53.4274 56.0531 53.0713 56.2006 52.7 56.2006H50.6C50.2287 56.2006 49.8726 56.0531 49.6101 55.7905C49.3475 55.528 49.2 55.1719 49.2 54.8006V52.7006Z" fill="white"/>
<path d="M50.6008 46.4005H52.7015V48.5005H50.6008V46.4005ZM29.4209 44.8605L37.5227 37.2907C37.6524 37.1695 37.8233 37.102 38.0008 37.102C38.1783 37.102 38.3492 37.1695 38.4789 37.2907L46.5807 44.8605L47.4907 43.9505L38.215 35.2852C38.1567 35.2312 38.0802 35.2012 38.0008 35.2012C37.9213 35.2012 37.8448 35.2312 37.7866 35.2852L28.5081 43.9449L29.4209 44.8605ZM42.4269 37.3005L47.6769 42.2005H56.9008C57.0176 42.2007 57.1325 42.1717 57.2352 42.1161C57.3379 42.0604 57.425 41.98 57.4887 41.8821C57.5524 41.7842 57.5905 41.672 57.5997 41.5556C57.6089 41.4391 57.5888 41.3223 57.5413 41.2156L55.9824 37.7156C55.9283 37.5917 55.8395 37.4861 55.7267 37.4116C55.6139 37.337 55.482 37.2968 55.3468 37.2956L42.4269 37.3005ZM19.8008 43.6005V56.9005C19.8008 57.0862 19.8745 57.2642 20.0058 57.3955C20.1371 57.5268 20.3151 57.6005 20.5008 57.6005H28.9008V46.159C28.7252 46.0883 28.5656 45.9828 28.4318 45.8489L27.5176 44.9347C27.3843 44.8021 27.2793 44.6439 27.2089 44.4695C27.1385 44.2952 27.1042 44.1084 27.1081 43.9204C27.1113 43.8124 27.1268 43.7051 27.1543 43.6005H19.8008ZM26.8008 54.8005C26.8008 55.1718 26.6533 55.5279 26.3907 55.7905C26.1282 56.053 25.7721 56.2005 25.4008 56.2005H23.3008C22.9295 56.2005 22.5734 56.053 22.3108 55.7905C22.0483 55.5279 21.9008 55.1718 21.9008 54.8005V52.7005C21.9008 52.3292 22.0483 51.9731 22.3108 51.7106C22.5734 51.448 22.9295 51.3005 23.3008 51.3005H25.4008C25.7721 51.3005 26.1282 51.448 26.3907 51.7106C26.6533 51.9731 26.8008 52.3292 26.8008 52.7005V54.8005ZM26.8008 48.5005C26.8008 48.8718 26.6533 49.2279 26.3907 49.4905C26.1282 49.753 25.7721 49.9005 25.4008 49.9005H23.3008C22.9295 49.9005 22.5734 49.753 22.3108 49.4905C22.0483 49.2279 21.9008 48.8718 21.9008 48.5005V46.4005C21.9008 46.0292 22.0483 45.6731 22.3108 45.4106C22.5734 45.148 22.9295 45.0005 23.3008 45.0005H25.4008C25.7721 45.0005 26.1282 45.148 26.3907 45.4106C26.6533 45.6731 26.8008 46.0292 26.8008 46.4005V48.5005Z" fill="white"/>
<path d="M23.3008 46.4008H25.4015V48.5008H23.3008V46.4008ZM23.3008 52.7008H25.4015V54.8008H23.3008V52.7008ZM40.1008 50.6008H38.7008V57.6008H40.8008V51.3008C40.8008 51.1151 40.727 50.9371 40.5958 50.8058C40.4645 50.6745 40.2864 50.6008 40.1008 50.6008ZM35.9008 50.6008C35.7151 50.6008 35.5371 50.6745 35.4058 50.8058C35.2745 50.9371 35.2008 51.1151 35.2008 51.3008V57.6008H37.3008V50.6008H35.9008ZM36.6008 44.3008H39.4015V46.4008H36.6008V44.3008Z" fill="white"/>
<path d="M38.0001 38.7599L30.3757 45.881C30.3519 45.9034 30.3253 45.9188 30.3001 45.9391V57.6004H33.8001V51.3004C33.8001 50.7434 34.0213 50.2093 34.4152 49.8155C34.809 49.4216 35.3431 49.2004 35.9001 49.2004H40.1001C40.6571 49.2004 41.1912 49.4216 41.585 49.8155C41.9788 50.2093 42.2001 50.7434 42.2001 51.3004V57.6004H45.7001V45.9398C45.6749 45.9195 45.6476 45.9034 45.6238 45.881L38.0001 38.7599ZM40.8001 46.4004C40.8001 46.7717 40.6526 47.1278 40.39 47.3903C40.1275 47.6529 39.7714 47.8004 39.4001 47.8004H36.6001C36.2288 47.8004 35.8727 47.6529 35.6101 47.3903C35.3476 47.1278 35.2001 46.7717 35.2001 46.4004V44.3004C35.2001 43.9291 35.3476 43.573 35.6101 43.3104C35.8727 43.0479 36.2288 42.9004 36.6001 42.9004H39.4001C39.7714 42.9004 40.1275 43.0479 40.39 43.3104C40.6526 43.573 40.8001 43.9291 40.8001 44.3004V46.4004ZM39.0249 34.1504L39.5429 32.245C38.5248 32.4522 37.4754 32.4522 36.4573 32.245L36.9753 34.1504C37.2712 33.9292 37.6307 33.8097 38.0001 33.8097C38.3695 33.8097 38.729 33.9292 39.0249 34.1504ZM38.0001 31.0004C39.2461 31.0004 40.4642 30.6309 41.5002 29.9387C42.5362 29.2464 43.3437 28.2625 43.8205 27.1113C44.2974 25.9601 44.4221 24.6934 44.179 23.4713C43.936 22.2492 43.3359 21.1267 42.4549 20.2456C41.5738 19.3645 40.4512 18.7645 39.2292 18.5214C38.0071 18.2784 36.7404 18.4031 35.5892 18.88C34.438 19.3568 33.4541 20.1643 32.7618 21.2003C32.0696 22.2363 31.7001 23.4544 31.7001 24.7004C31.702 26.3707 32.3663 27.972 33.5474 29.1531C34.7284 30.3342 36.3298 30.9985 38.0001 31.0004ZM37.8286 25.9135C37.9074 25.7456 38.0496 25.6158 38.2241 25.5526C38.3985 25.4895 38.5909 25.4982 38.7589 25.5768C38.9283 25.6563 39.0599 25.799 39.1253 25.9744C39.1908 26.1497 39.1849 26.3437 39.1089 26.5148C39.0541 26.6362 38.9656 26.7393 38.8539 26.8119C38.7423 26.8845 38.6121 26.9235 38.4789 26.9243C38.3794 26.9239 38.2812 26.9017 38.1912 26.8592L38.159 26.8445C37.992 26.7646 37.8635 26.6217 37.8015 26.4472C37.7396 26.2727 37.7494 26.0808 37.8286 25.9135ZM37.3001 28.8626C37.3001 28.6769 37.3738 28.4989 37.5051 28.3676C37.6364 28.2363 37.8144 28.1626 38.0001 28.1626C38.1857 28.1626 38.3638 28.2363 38.4951 28.3676C38.6264 28.4989 38.7001 28.6769 38.7001 28.8626C38.7011 29.0504 38.6282 29.231 38.4973 29.3656C38.3664 29.5002 38.1878 29.578 38.0001 29.5822C37.9091 29.5843 37.8186 29.5683 37.7339 29.535C37.6492 29.5017 37.572 29.4519 37.5068 29.3884C37.4416 29.3249 37.3898 29.249 37.3543 29.1652C37.3188 29.0814 37.3004 28.9914 37.3001 28.9004V28.8626ZM36.2585 23.7848L36.2921 23.7729C36.3884 23.7376 36.4912 23.724 36.5933 23.7328C36.6954 23.7417 36.7943 23.7729 36.8831 23.8242C36.9718 23.8755 37.0482 23.9456 37.1069 24.0297C37.1655 24.1138 37.205 24.2097 37.2225 24.3107C37.24 24.4117 37.2351 24.5153 37.2082 24.6142C37.1812 24.7131 37.1329 24.8049 37.0666 24.8831C37.0003 24.9612 36.9176 25.0239 36.8244 25.0666C36.7312 25.1093 36.6298 25.131 36.5273 25.1302C36.383 25.1319 36.2416 25.0894 36.1221 25.0084C36.0026 24.9275 35.9108 24.8119 35.8588 24.6773C35.8256 24.5925 35.8096 24.502 35.8118 24.411C35.8139 24.32 35.8342 24.2303 35.8714 24.1472C35.9086 24.0641 35.962 23.9893 36.0285 23.927C36.095 23.8648 36.1731 23.8165 36.2585 23.7848ZM35.5501 27.1504C35.6813 27.2817 35.755 27.4597 35.755 27.6453C35.755 27.8309 35.6813 28.0089 35.5501 28.1402C35.4131 28.2755 35.2281 28.351 35.0356 28.3502C34.8992 28.3507 34.7656 28.311 34.6516 28.236C34.5377 28.1609 34.4483 28.054 34.3948 27.9285C34.3413 27.803 34.3261 27.6645 34.3509 27.5303C34.3757 27.3961 34.4395 27.2723 34.5344 27.1742L34.5603 27.1483C34.6918 27.0173 34.87 26.944 35.0556 26.9444C35.2412 26.9448 35.4191 27.0189 35.5501 27.1504ZM33.1183 24.7004C33.1162 24.6094 33.1322 24.5189 33.1655 24.4342C33.1987 24.3495 33.2486 24.2723 33.3121 24.2071C33.3756 24.1419 33.4515 24.0901 33.5353 24.0546C33.6191 24.0191 33.7091 24.0006 33.8001 24.0004H33.8379C34.0236 24.0004 34.2016 24.0741 34.3329 24.2054C34.4641 24.3367 34.5379 24.5147 34.5379 24.7004C34.5379 24.886 34.4641 25.0641 34.3329 25.1954C34.2016 25.3266 34.0236 25.4004 33.8379 25.4004C33.6501 25.4014 33.4695 25.3285 33.3349 25.1976C33.2003 25.0667 33.1225 24.8881 33.1183 24.7004ZM18.5163 41.884C18.579 41.9817 18.6654 42.062 18.7675 42.1173C18.8696 42.1726 18.984 42.2012 19.1001 42.2004H28.3247L33.5747 37.3004H20.6555C20.5204 37.3017 20.3886 37.342 20.276 37.4165C20.1633 37.4911 20.0746 37.5966 20.0206 37.7204L18.4596 41.2204C18.4125 41.3269 18.393 41.4435 18.4029 41.5595C18.4128 41.6755 18.4518 41.7871 18.5163 41.884Z" fill="white"/>
</svg>
