<svg width="76" height="76" viewBox="0 0 76 76" fill="none" xmlns="http://www.w3.org/2000/svg">
<circle cx="38" cy="38" r="38" fill="#333333"/>
<path d="M31.3473 41.8435C32.3354 41.8435 33.4231 41.94 34.416 42.1224V39.148H41.6502V44.4564C42.5012 44.7689 43.1227 45.106 43.7061 45.5298C44.8121 46.3332 45.4199 47.3878 45.4563 48.5446C46.8641 48.212 48.1554 47.648 49.2727 46.8797C49.6764 46.6023 50.1609 46.3594 50.4446 46.1511V37.8895L37.9995 23.9834L25.3379 37.9734V42.973C26.189 42.7573 26.9646 42.5254 27.8636 42.2802C28.9269 41.9904 30.1069 41.8435 31.3473 41.8435Z" fill="white"/>
<path d="M38.0563 20.5905L52.1251 36.3108H55.3338L38.0281 17L30.8701 24.8827V21.7006H25.6218V30.6816L20.5745 36.3108H23.8289L38.0563 20.5905ZM53.7497 47.4871C52.9704 47.4871 51.9213 47.8332 50.5881 48.7497C48.1509 50.425 45.1674 51.1627 42.4415 51.1627C40.2254 51.1627 38.1797 50.6755 36.735 49.8087C36.0192 49.3792 36.0214 49.2358 36.4365 49.2358C37.2703 49.2358 39.7705 49.8143 41.4648 49.8143C42.2986 49.8143 42.9371 49.6743 43.0864 49.2563C43.7768 47.3232 41.1004 46.7008 38.302 45.5683C36.2531 44.7388 33.7525 44.1127 31.3712 44.1126C30.3785 44.1126 29.3976 44.2214 28.4872 44.4696C24.3537 45.5966 21.3667 46.4455 20.5156 46.7211V57.5695C22.2178 56.9435 24.1894 56.3437 25.3114 56.3437C27.3705 56.3437 35.7021 58.9999 40.4194 58.9999C41.0802 58.9999 41.6718 58.9478 42.1639 58.8291C46.1677 57.8625 53.1189 52.2013 55.0056 50.2685C55.9114 49.3406 55.5531 47.4871 53.7497 47.4871Z" fill="white"/>
</svg>
