<svg width="38" height="14" viewBox="0 0 38 14" fill="none" xmlns="http://www.w3.org/2000/svg">
<g clip-path="url(#clip0_183_616)">
<path d="M37.1233 7.78507H0.877143C0.44599 7.78507 0.0976562 7.43215 0.0976562 6.99533C0.0976562 6.5585 0.44599 6.20558 0.877143 6.20558H35.2403L30.5098 1.41283C30.2053 1.10433 30.2053 0.60334 30.5098 0.294847C30.8143 -0.0136468 31.3088 -0.0136468 31.6133 0.294847L37.6762 6.43757C37.9003 6.66462 37.9661 7.00273 37.8443 7.29888C37.7225 7.59257 37.4375 7.78507 37.1233 7.78507Z" fill="white"/>
<path d="M31.0533 13.9346C30.8536 13.9346 30.6538 13.8581 30.5028 13.7026C30.1983 13.3941 30.1983 12.8931 30.5028 12.5846L36.573 6.4345C36.8775 6.126 37.372 6.126 37.6765 6.4345C37.981 6.74299 37.981 7.24398 37.6765 7.55248L31.6062 13.7026C31.4528 13.8581 31.253 13.9346 31.0533 13.9346Z" fill="white"/>
</g>
<defs>
<clipPath id="clip0_183_616">
<rect width="38" height="14" fill="white"/>
</clipPath>
</defs>
</svg>
