<svg width="40" height="40" viewBox="0 0 40 40" fill="none" xmlns="http://www.w3.org/2000/svg">
<rect x="-0.5" y="0.5" width="39" height="39" transform="matrix(-1 0 0 1 39 0)" stroke="white"/>
<path d="M8.40107 19.2341L15.9844 11.6508C16.1887 11.4534 16.4624 11.3443 16.7464 11.3467C17.0305 11.3492 17.3022 11.4631 17.503 11.664C17.7039 11.8648 17.8178 12.1366 17.8203 12.4206C17.8228 12.7046 17.7136 12.9783 17.5162 13.1826L11.7822 18.9167H30.8337C31.121 18.9167 31.3965 19.0308 31.5997 19.234C31.8029 19.4372 31.917 19.7127 31.917 20C31.917 20.2874 31.8029 20.5629 31.5997 20.7661C31.3965 20.9692 31.121 21.0834 30.8337 21.0834H11.7822L17.5162 26.8175C17.6197 26.9174 17.7022 27.0369 17.759 27.1691C17.8158 27.3013 17.8457 27.4434 17.8469 27.5873C17.8482 27.7311 17.8208 27.8738 17.7663 28.0069C17.7118 28.14 17.6314 28.261 17.5297 28.3627C17.428 28.4644 17.307 28.5449 17.1739 28.5993C17.0407 28.6538 16.8981 28.6812 16.7542 28.68C16.6104 28.6787 16.4682 28.6488 16.3361 28.5921C16.2039 28.5353 16.0843 28.4528 15.9844 28.3493L8.40107 20.766C8.19798 20.5628 8.08389 20.2873 8.08389 20C8.08389 19.7128 8.19798 19.4373 8.40107 19.2341Z" fill="white"/>
</svg>
