<svg width="60" height="60" viewBox="0 0 60 60" fill="none" xmlns="http://www.w3.org/2000/svg">
<circle cx="30" cy="30" r="30" fill="#82A93C"/>
<path d="M13.125 45.4675H19.4288V32.1262H13.125V45.4675ZM28.9594 22.9625V25.0588H31.0407V22.9625C31.0407 22.9144 31.0502 22.8667 31.0686 22.8222C31.0871 22.7776 31.1141 22.7372 31.1481 22.7031C31.1822 22.6691 31.2226 22.6421 31.2671 22.6236C31.3116 22.6052 31.3593 22.5957 31.4075 22.5957H33.5038V20.5145H31.4075C31.3102 20.5145 31.2169 20.4758 31.1481 20.407C31.0793 20.3382 31.0407 20.2449 31.0407 20.1476V18.0513H28.9594V20.1476C28.9594 20.2449 28.9207 20.3382 28.8519 20.4069C28.7831 20.4757 28.6898 20.5144 28.5926 20.5144H26.4963V22.5956H28.5926C28.6898 22.5957 28.7831 22.6343 28.8519 22.7031C28.9207 22.7719 28.9594 22.8652 28.9594 22.9625Z" fill="white"/>
<path d="M29.9996 28.5775C33.8718 28.5775 37.0221 25.4273 37.0221 21.555C37.0221 17.6828 33.8718 14.5325 29.9996 14.5325C26.1274 14.5325 22.9771 17.6828 22.9771 21.555C22.9771 25.4273 26.1274 28.5775 29.9996 28.5775ZM25.7621 20.1476C25.7621 20.0503 25.8008 19.957 25.8696 19.8882C25.9384 19.8194 26.0317 19.7807 26.129 19.7807H28.2253V17.6844C28.2253 17.5872 28.2639 17.4939 28.3327 17.4251C28.4015 17.3563 28.4948 17.3176 28.5921 17.3176H31.407C31.5043 17.3176 31.5976 17.3563 31.6664 17.4251C31.7352 17.4939 31.7739 17.5872 31.7739 17.6844V19.7807H33.8702C33.9675 19.7807 34.0608 19.8194 34.1295 19.8882C34.1983 19.957 34.237 20.0503 34.237 20.1476V22.9625C34.237 23.0107 34.2275 23.0584 34.2091 23.1029C34.1906 23.1474 34.1636 23.1878 34.1295 23.2219C34.0955 23.256 34.055 23.283 34.0105 23.3014C33.966 23.3199 33.9183 23.3293 33.8702 23.3293H31.7739V25.4256C31.7739 25.4738 31.7644 25.5215 31.7459 25.566C31.7275 25.6105 31.7005 25.651 31.6664 25.685C31.6324 25.7191 31.5919 25.7461 31.5474 25.7645C31.5029 25.783 31.4552 25.7925 31.407 25.7925H28.5921C28.5439 25.7925 28.4962 25.783 28.4517 25.7645C28.4072 25.7461 28.3668 25.7191 28.3327 25.685C28.2986 25.651 28.2716 25.6105 28.2532 25.566C28.2348 25.5215 28.2253 25.4738 28.2253 25.4256V23.3293H26.129C26.0808 23.3293 26.0331 23.3199 25.9886 23.3014C25.9441 23.283 25.9036 23.256 25.8696 23.2219C25.8355 23.1878 25.8085 23.1474 25.7901 23.1029C25.7716 23.0584 25.7621 23.0107 25.7621 22.9625V20.1476ZM46.6948 34.1348C46.1989 33.0387 44.8609 32.6135 43.8233 33.2229C42.389 34.0772 36.7964 37.41 36.7459 37.4386C36.4107 37.6466 36.024 37.7566 35.6296 37.7562H27.5365C27.4392 37.7562 27.3459 37.7176 27.2771 37.6488C27.2083 37.58 27.1697 37.4867 27.1697 37.3894C27.1697 37.2921 27.2083 37.1988 27.2771 37.13C27.3459 37.0612 27.4392 37.0226 27.5365 37.0226H35.6296C36.3974 37.0226 37.0221 36.3978 37.0221 35.63C37.0221 34.8621 36.3974 34.2375 35.6296 34.2375H31.0553C30.9864 34.2375 30.919 34.2181 30.8606 34.1816C27.6157 32.1511 23.4392 32.1176 20.1621 34.0781V43.377L28.5985 44.9558C30.1797 45.2518 31.8146 44.9664 33.2019 44.1521L45.8685 36.7183C46.7538 36.2019 47.1267 35.0869 46.6948 34.1348Z" fill="white"/>
</svg>
