<svg width="60" height="60" viewBox="0 0 60 60" fill="none" xmlns="http://www.w3.org/2000/svg">
<circle cx="30" cy="30" r="30" fill="#82A93C"/>
<path d="M40.4989 37.8316L33.6881 40.6267C33.3872 40.9089 33.0021 41.0847 32.5918 41.1273L27.564 41.6252C27.3864 41.6398 27.2102 41.5841 27.0733 41.47C26.9364 41.3559 26.8499 41.1925 26.8323 41.0152C26.8148 40.8378 26.8676 40.6607 26.9795 40.522C27.0913 40.3832 27.2532 40.294 27.4302 40.2735L32.4573 39.7756C32.7874 39.7424 33.0252 39.4088 32.9878 39.0312C32.9491 38.6386 32.638 38.375 32.3221 38.4063L29.5522 38.6807C28.2672 38.8048 26.9743 38.5452 25.8367 37.9349C24.9362 37.4504 23.9121 37.2443 22.8942 37.3426L21.982 37.4329L22.6429 44.0956C23.7541 43.9886 24.8739 44.176 25.8897 44.639L26.7999 45.052C28.104 45.6436 29.5379 45.6593 30.8366 45.0928L41.1924 39.7566C41.7915 39.4917 41.9436 38.7996 41.6821 38.2861C41.443 37.8147 40.9329 37.6177 40.4982 37.831L40.4989 37.8316ZM19.9286 36.4385L17.4141 36.647L18.5654 45.6348L20.8184 45.4113C20.9734 45.3959 21.116 45.3195 21.2147 45.199C21.3134 45.0785 21.3602 44.9238 21.3449 44.7688L20.5712 36.9642C20.5556 36.8094 20.4791 36.667 20.3587 36.5684C20.2382 36.4699 20.0835 36.4231 19.9286 36.4385ZM32.2658 36.9771C32.3609 37.0247 32.4627 37.0451 32.5714 37.0451C32.6869 37.0451 32.8092 37.0111 32.911 36.95C39.6695 32.99 42.7737 26.4013 42.5767 19.4798C42.5359 18.3862 42.4273 17.7205 42.4205 17.6934C42.3593 17.3334 42.0265 17.0888 41.6529 17.1364C38.2941 17.6316 33.7716 15.3344 32.9382 14.5009C32.8122 14.4061 32.6571 14.3583 32.4995 14.3657C32.342 14.3732 32.1921 14.4354 32.0756 14.5417C29.2907 17.0685 25.1507 17.6608 23.5375 17.1228C23.3541 17.082 23.1639 17.1228 23.0076 17.2315C22.8582 17.3402 22.7563 17.5032 22.7292 17.6866C21.3843 26.7817 25.548 32.5009 32.2658 36.9771ZM32.7005 18.3522C34.7403 19.4696 36.8873 20.2854 39.1805 20.5394C39.0786 25.5699 36.8167 30.1745 32.5307 33.1598C28.409 30.2499 25.8401 25.9061 25.8944 20.6073C28.2806 20.4579 30.588 19.7399 32.7005 18.3522Z" fill="white"/>
<path d="M32.1297 28.2856C32.2352 28.2856 32.3392 28.261 32.4335 28.2139C32.5278 28.1667 32.6098 28.0982 32.6731 28.0139L35.6367 24.0688C35.6903 23.9975 35.7293 23.9163 35.7515 23.8299C35.7738 23.7435 35.7788 23.6536 35.7663 23.5652C35.7537 23.4769 35.7239 23.3919 35.6786 23.3151C35.6332 23.2383 35.5731 23.1711 35.5018 23.1175C35.4305 23.0639 35.3493 23.0249 35.2629 23.0026C35.1765 22.9804 35.0866 22.9754 34.9983 22.9879C34.9099 23.0004 34.8249 23.0302 34.7481 23.0756C34.6713 23.121 34.6042 23.181 34.5505 23.2524L32.0815 26.5399L30.8602 25.1868C30.7383 25.058 30.5708 24.9819 30.3935 24.9749C30.2162 24.9679 30.0432 25.0306 29.9115 25.1495C29.7798 25.2684 29.6999 25.4341 29.6888 25.6112C29.6777 25.7882 29.7364 25.9626 29.8522 26.097L31.625 28.0614C31.6888 28.132 31.7666 28.1885 31.8536 28.2271C31.9405 28.2657 32.0346 28.2856 32.1297 28.2856Z" fill="white"/>
</svg>
