<svg width="60" height="60" viewBox="0 0 60 60" fill="none" xmlns="http://www.w3.org/2000/svg">
<circle cx="30" cy="30" r="30" fill="#82A93C"/>
<path d="M28.3125 18.1875C28.3125 18.2884 28.3397 18.3875 28.3911 18.4744C28.4426 18.5612 28.5165 18.6326 28.6051 18.681L30.2504 19.5807L31.1687 21.7793C31.2115 21.8817 31.2836 21.9691 31.376 22.0306C31.4683 22.0922 31.5768 22.125 31.6878 22.125C31.7988 22.125 31.9072 22.0922 31.9996 22.0306C32.092 21.9691 32.1641 21.8817 32.2068 21.7793L33.1252 19.5807L34.7705 18.681C34.8591 18.6326 34.933 18.5612 34.9844 18.4744C35.0359 18.3875 35.0631 18.2884 35.0631 18.1875C35.0631 18.0866 35.0359 17.9875 34.9844 17.9006C34.933 17.8138 34.8591 17.7424 34.7705 17.694L33.1252 16.7943L32.2065 14.5957C32.1638 14.4933 32.0917 14.4059 31.9993 14.3444C31.907 14.2828 31.7985 14.25 31.6875 14.25C31.5765 14.25 31.468 14.2828 31.3757 14.3444C31.2833 14.4059 31.2112 14.4933 31.1685 14.5957L30.2501 16.7943L28.6048 17.694C28.5163 17.7425 28.4424 17.8139 28.391 17.9007C28.3396 17.9875 28.3125 18.0866 28.3125 18.1875ZM44.0625 22.125C44.3963 22.125 44.7225 22.224 45 22.4094C45.2775 22.5948 45.4938 22.8584 45.6215 23.1667C45.7493 23.4751 45.7827 23.8144 45.7176 24.1417C45.6525 24.4691 45.4917 24.7697 45.2557 25.0057C45.0197 25.2417 44.7191 25.4025 44.3917 25.4676C44.0644 25.5327 43.7251 25.4993 43.4167 25.3715C43.1084 25.2438 42.8448 25.0275 42.6594 24.75C42.474 24.4725 42.375 24.1463 42.375 23.8125C42.3755 23.3651 42.5535 22.9362 42.8698 22.6198C43.1862 22.3035 43.6151 22.1255 44.0625 22.125ZM43.5 43.5V28.875H44.625V43.5H43.5ZM36.75 23.1788C37.119 23.2737 37.506 23.2737 37.875 23.1788V29.4375H36.75V23.1788ZM37.3125 19.875C37.535 19.875 37.7525 19.941 37.9375 20.0646C38.1225 20.1882 38.2667 20.3639 38.3519 20.5695C38.437 20.775 38.4593 21.0012 38.4159 21.2195C38.3725 21.4377 38.2653 21.6382 38.108 21.7955C37.9507 21.9528 37.7502 22.06 37.532 22.1034C37.3137 22.1468 37.0875 22.1245 36.882 22.0394C36.6764 21.9542 36.5007 21.81 36.3771 21.625C36.2535 21.44 36.1875 21.2225 36.1875 21C36.1879 20.7017 36.3065 20.4158 36.5174 20.2049C36.7283 19.994 37.0142 19.8754 37.3125 19.875ZM22.125 23.1788C22.494 23.2737 22.881 23.2737 23.25 23.1788V29.4375H22.125V23.1788ZM22.6875 19.875C22.91 19.875 23.1275 19.941 23.3125 20.0646C23.4975 20.1882 23.6417 20.3639 23.7269 20.5695C23.812 20.775 23.8343 21.0012 23.7909 21.2195C23.7475 21.4377 23.6403 21.6382 23.483 21.7955C23.3257 21.9528 23.1252 22.06 22.907 22.1034C22.6887 22.1468 22.4625 22.1245 22.257 22.0394C22.0514 21.9542 21.8757 21.81 21.7521 21.625C21.6285 21.44 21.5625 21.2225 21.5625 21C21.5629 20.7017 21.6815 20.4158 21.8924 20.2049C22.1033 19.994 22.3892 19.8754 22.6875 19.875ZM34.7858 32.5547C31.689 33.6484 28.3109 33.6484 25.2141 32.5547L25.9008 30.5625H34.0992L34.7858 32.5547ZM15.375 43.5V28.875H16.5V43.5H15.375ZM14.8125 26.625H17.0625C17.2117 26.625 17.3548 26.6843 17.4602 26.7898C17.5657 26.8952 17.625 27.0383 17.625 27.1875C17.625 27.3367 17.5657 27.4798 17.4602 27.5852C17.3548 27.6907 17.2117 27.75 17.0625 27.75H14.8125C14.6633 27.75 14.5202 27.6907 14.4148 27.5852C14.3093 27.4798 14.25 27.3367 14.25 27.1875C14.25 27.0383 14.3093 26.8952 14.4148 26.7898C14.5202 26.6843 14.6633 26.625 14.8125 26.625ZM15.9375 22.125C16.2713 22.125 16.5975 22.224 16.875 22.4094C17.1525 22.5948 17.3688 22.8584 17.4965 23.1667C17.6243 23.4751 17.6577 23.8144 17.5926 24.1417C17.5275 24.4691 17.3667 24.7697 17.1307 25.0057C16.8947 25.2417 16.5941 25.4025 16.2667 25.4676C15.9394 25.5327 15.6001 25.4993 15.2917 25.3715C14.9834 25.2438 14.7198 25.0275 14.5344 24.75C14.349 24.4725 14.25 24.1463 14.25 23.8125C14.2505 23.3651 14.4285 22.9362 14.7448 22.6198C15.0612 22.3035 15.4901 22.1255 15.9375 22.125ZM17.625 45.75H14.25V45.1805C14.2502 45.0332 14.3088 44.892 14.4129 44.7879C14.517 44.6838 14.6582 44.6252 14.8055 44.625H17.0695C17.2168 44.6252 17.358 44.6838 17.4621 44.7879C17.5662 44.892 17.6248 45.0332 17.625 45.1805V45.75ZM20.664 45.75L24.1314 35.6944C27.9172 37.1019 32.0828 37.1019 35.8686 35.6944L39.336 45.75H20.664ZM41.1249 31.0168C39.6639 32.4778 37.9295 33.6367 36.0206 34.4274C34.1118 35.2181 32.0659 35.625 29.9997 35.625C27.9336 35.625 25.8877 35.2181 23.9788 34.4274C22.0699 33.6367 20.3355 32.4778 18.8745 31.0168L17.625 29.767V28.7782C17.681 28.7584 17.736 28.7357 17.7896 28.7101L19.0395 29.9601C21.9464 32.8669 25.889 34.5 30 34.5C34.111 34.5 38.0536 32.8669 40.9605 29.9601L42.2104 28.7101C42.264 28.7357 42.319 28.7584 42.375 28.7782V29.767L41.1249 31.0168ZM45.75 45.75H42.375V45.1805C42.3752 45.0332 42.4338 44.892 42.5379 44.7879C42.642 44.6838 42.7832 44.6252 42.9305 44.625H45.1945C45.3418 44.6252 45.483 44.6838 45.5871 44.7879C45.6912 44.892 45.7498 45.0332 45.75 45.1805V45.75ZM45.1875 27.75H42.9375C42.7883 27.75 42.6452 27.6907 42.5398 27.5852C42.4343 27.4798 42.375 27.3367 42.375 27.1875C42.375 27.0383 42.4343 26.8952 42.5398 26.7898C42.6452 26.6843 42.7883 26.625 42.9375 26.625H45.1875C45.3367 26.625 45.4798 26.6843 45.5852 26.7898C45.6907 26.8952 45.75 27.0383 45.75 27.1875C45.75 27.3367 45.6907 27.4798 45.5852 27.5852C45.4798 27.6907 45.3367 27.75 45.1875 27.75ZM25.5 14.25H26.625V15.375H25.5V14.25ZM27.75 14.25H28.875V15.375H27.75V14.25ZM26.625 13.125H27.75V14.25H26.625V13.125ZM26.625 15.375H27.75V16.5H26.625V15.375ZM26.625 20.4375H27.75V21.5625H26.625V20.4375ZM39 14.25H40.125V15.375H39V14.25ZM20.4375 14.8125H21.5625V15.9375H20.4375V14.8125ZM30 25.8085C28.7771 25.8107 27.5658 25.5712 26.4357 25.1039C25.3056 24.6365 24.2789 23.9505 23.4147 23.0853L24.2103 22.2897C25.747 23.823 27.8292 24.6841 30 24.6841C32.1708 24.6841 34.253 23.823 35.7897 22.2897L36.5853 23.0853C35.7211 23.9505 34.6944 24.6365 33.5643 25.1039C32.4342 25.5712 31.2229 25.8107 30 25.8085Z" fill="white"/>
</svg>
