<svg width="64" height="143" viewBox="0 0 64 143" fill="none" xmlns="http://www.w3.org/2000/svg">
<circle opacity="0.5" cx="32" cy="111" r="32" fill="#82A93C"/>
<circle cx="32" cy="111" r="25" fill="white"/>
<path d="M31.9767 96C27.1109 96 23.1523 99.9585 23.1523 104.824V117.176C23.1523 122.041 27.1109 126 31.9767 126C36.8425 126 40.801 122.041 40.801 117.176V104.824C40.801 99.9585 36.8425 96 31.9767 96ZM39.001 117.176C39.001 121.049 35.8498 124.2 31.9767 124.2C28.1035 124.2 24.9523 121.049 24.9523 117.176V104.824C24.9523 100.951 28.1035 97.7999 31.9767 97.7999C35.8498 97.7999 39.001 100.951 39.001 104.824V117.176Z" fill="#82A93C"/>
<path d="M31.9771 101.968C31.48 101.968 31.0771 102.371 31.0771 102.868V107.01C31.0771 107.507 31.48 107.91 31.9771 107.91C32.474 107.91 32.8771 107.507 32.8771 107.01V102.868C32.8771 102.371 32.4743 101.968 31.9771 101.968Z" fill="#82A93C"/>
<line x1="31.5" y1="2.18557e-08" x2="31.5" y2="79" stroke="#82A93C" stroke-dasharray="7 7"/>
</svg>
