<svg width="76" height="76" viewBox="0 0 76 76" fill="none" xmlns="http://www.w3.org/2000/svg">
<circle cx="38" cy="38" r="38" fill="#333333"/>
<g clip-path="url(#clip0_183_2475)">
<path d="M58.3 52.7007C58.6866 52.7007 59 52.3873 59 52.0007C59 51.6141 58.6866 51.3007 58.3 51.3007H57.6001V49.2007H58.3C58.6866 49.2007 59 48.8874 59 48.5008C59 48.1141 58.6866 47.8008 58.3 47.8008H57.6001C57.6001 47.4142 57.2867 47.1008 56.9001 47.1008C56.5135 47.1008 56.2001 47.4142 56.2001 47.8008H45C45 47.6151 44.9262 47.4371 44.795 47.3058C44.6637 47.1746 44.4856 47.1008 44.3 47.1008C44.1144 47.1008 43.9363 47.1746 43.805 47.3058C43.6738 47.4371 43.6 47.6151 43.6 47.8008H42.9001C42.5134 47.8008 42.2001 48.1141 42.2001 48.5008C42.2001 48.8874 42.5134 49.2007 42.9001 49.2007H43.6V51.3007H42.9001C42.5134 51.3007 42.2001 51.6141 42.2001 52.0007C42.2001 52.3873 42.5134 52.7007 42.9001 52.7007H43.6V53.4006H42.9001C42.5134 53.4006 42.2001 53.714 42.2001 54.1006C42.2001 54.4872 42.5134 54.8006 42.9001 54.8006H43.6V56.9006H31V50.8806C30.4417 50.4038 29.9683 49.8357 29.6 49.2006C29.2317 49.8357 28.7583 50.4038 28.2 50.8806V56.9006H17.7C17.3134 56.9006 17 57.2139 17 57.6006C17 57.9872 17.3134 58.3005 17.7 58.3005H58.2999C58.6866 58.3005 58.9999 57.9872 58.9999 57.6006C58.9999 57.2139 58.6866 56.9006 58.2999 56.9006H57.6V54.8006H58.2999C58.6866 54.8006 58.9999 54.4872 58.9999 54.1006C58.9999 53.714 58.6866 53.4006 58.2999 53.4006H57.6V52.7007H58.3ZM56.2 56.9007H45V54.8007H56.1999V56.9007H56.2ZM56.2 53.4007H45V52.7008H56.1999V53.4007H56.2ZM56.2 51.3007H45V49.2007H56.1999V51.3007H56.2ZM20.5 26.1007H24.3361C24.3291 26.0167 24.322 25.9397 24.322 25.8557C24.3077 23.4698 25.8618 21.3577 28.144 20.6617C27.8663 18.8559 26.2436 17.5694 24.422 17.7108C22.6004 17.8522 21.1957 19.3737 21.2 21.2007C21.1995 21.3861 21.1255 21.5639 20.9944 21.695C20.8632 21.8262 20.6855 21.9001 20.5 21.9006C19.3403 21.9006 18.4 22.8408 18.4 24.0006C18.4 25.1605 19.3402 26.1007 20.5 26.1007ZM47.1 32.4007H55.5C56.6597 32.4007 57.6 31.4606 57.6 30.3007C57.6 29.1409 56.6598 28.2007 55.5 28.2007C55.3145 28.2002 55.1368 28.1263 55.0056 27.9951C54.8745 27.864 54.8005 27.6862 54.8 27.5008C54.8 25.5678 53.233 24.0007 51.3 24.0007C49.367 24.0007 47.7999 25.5678 47.7999 27.5008C47.7994 27.6862 47.7255 27.864 47.5943 27.9951C47.4632 28.1263 47.2855 28.2002 47.1 28.2007C45.9402 28.2007 45 29.1409 45 30.3007C45 31.4605 45.9402 32.4007 47.1 32.4007Z" fill="white"/>
<path d="M24.1056 50.6007C25.0452 50.599 25.9695 50.3617 26.7937 49.9105C27.618 49.4592 28.3159 48.8084 28.8236 48.0177L24.2036 43.3977C24.0735 43.2655 24.001 43.0873 24.0017 42.9018C24.0025 42.7164 24.0765 42.5388 24.2076 42.4076C24.3387 42.2765 24.5163 42.2025 24.7018 42.2018C24.8872 42.201 25.0655 42.2736 25.1976 42.4036L28.9006 46.1137V38.9877L25.6036 35.6977C25.4718 35.5659 25.3977 35.3871 25.3977 35.2006C25.3977 35.0142 25.4718 34.8354 25.6036 34.7036C25.7354 34.5718 25.9142 34.4977 26.1006 34.4977C26.2871 34.4977 26.4658 34.5718 26.5977 34.7036L28.9007 37.0136V33.8006C28.9007 33.615 28.9744 33.4369 29.1057 33.3057C29.237 33.1744 29.415 33.1006 29.6007 33.1006C29.7863 33.1006 29.9643 33.1744 30.0956 33.3057C30.2269 33.4369 30.3006 33.615 30.3006 33.8006V37.0136L32.6037 34.7036C32.7355 34.5718 32.9143 34.4977 33.1007 34.4977C33.2871 34.4977 33.4659 34.5718 33.5977 34.7036C33.7295 34.8354 33.8036 35.0142 33.8036 35.2006C33.8036 35.3871 33.7295 35.5659 33.5977 35.6977L30.3007 38.9877V46.1137L34.0037 42.4036C34.1359 42.2736 34.3141 42.201 34.4995 42.2018C34.685 42.2025 34.8626 42.2765 34.9937 42.4076C35.1249 42.5388 35.1989 42.7164 35.1996 42.9018C35.2004 43.0873 35.1278 43.2655 34.9977 43.3977L30.3777 48.0177C30.8854 48.8084 31.5833 49.4592 32.4076 49.9105C33.2318 50.3617 34.1561 50.599 35.0958 50.6007C38.2961 50.5425 40.8468 47.9072 40.8008 44.7067C40.8008 44.6367 40.8008 44.5597 40.7938 44.4897C40.7678 43.5403 40.513 42.6112 40.0512 41.7813C39.5893 40.9514 38.934 40.2452 38.1409 39.7227C37.7334 39.4573 37.2935 39.2455 36.8319 39.0927C36.7178 39.0538 36.6156 38.9864 36.5347 38.897C36.4539 38.8076 36.3972 38.6991 36.3699 38.5817C36.3422 38.4651 36.345 38.3432 36.3781 38.228C36.4112 38.1127 36.4735 38.0079 36.5589 37.9238C37.0312 37.4623 37.4069 36.9115 37.664 36.3034C37.9212 35.6952 38.0548 35.042 38.0569 34.3817V34.3397C38.0832 31.9778 36.4249 29.9314 34.1089 29.4677C33.8301 29.4114 33.5463 29.3832 33.2619 29.3837C33.1305 29.3845 33.0015 29.349 32.8891 29.281C32.7767 29.2131 32.6853 29.1154 32.6249 28.9988C32.5654 28.8846 32.5385 28.7563 32.5471 28.6279C32.5558 28.4994 32.5996 28.3759 32.6739 28.2707C33.1371 27.6525 33.4118 26.9135 33.4649 26.1428C33.4767 26.0476 33.4814 25.9516 33.4789 25.8557C33.5115 23.6789 31.7776 21.8856 29.6009 21.8447C27.4242 21.8856 25.6903 23.6789 25.7229 25.8557C25.7204 25.9516 25.7251 26.0475 25.7369 26.1428C25.79 26.9135 26.0647 27.6525 26.5279 28.2707C26.6034 28.3765 26.6485 28.5009 26.6583 28.6304C26.6682 28.76 26.6425 28.8897 26.584 29.0057C26.5173 29.1305 26.4154 29.2329 26.2909 29.3001C26.1664 29.3674 26.0249 29.3964 25.884 29.3837C25.6183 29.3809 25.3531 29.4067 25.093 29.4608C22.7739 29.9245 21.1147 31.975 21.145 34.3397V34.3817C21.1471 35.042 21.2806 35.6952 21.5378 36.3034C21.795 36.9115 22.1707 37.4623 22.6429 37.9238C22.7283 38.0079 22.7906 38.1127 22.8237 38.228C22.8568 38.3432 22.8596 38.4651 22.8319 38.5817C22.8047 38.6991 22.7479 38.8076 22.6671 38.897C22.5863 38.9864 22.484 39.0538 22.3699 39.0927C21.9083 39.2455 21.4684 39.4573 21.061 39.7227C20.2678 40.2452 19.6125 40.9514 19.1506 41.7813C18.6888 42.6112 18.434 43.5403 18.408 44.4897C18.401 44.5597 18.401 44.6367 18.401 44.7067C18.3545 47.9072 20.9053 50.5425 24.1056 50.6007Z" fill="white"/>
</g>
<defs>
<clipPath id="clip0_183_2475">
<rect width="42" height="42" fill="white" transform="translate(17 17)"/>
</clipPath>
</defs>
</svg>
