<svg width="33" height="33" viewBox="0 0 33 33" fill="none" xmlns="http://www.w3.org/2000/svg">
<rect x="0.5" y="0.5" width="32" height="32" stroke="#82A93C"/>
<g clip-path="url(#clip0_183_811)">
<path d="M17 26C16.7669 26 16.5433 25.9074 16.3785 25.7426C16.2137 25.5777 16.1211 25.3542 16.1211 25.1211V8.87891C16.1211 8.64581 16.2137 8.42225 16.3785 8.25743C16.5433 8.0926 16.7669 8 17 8C17.2331 8 17.4567 8.0926 17.6215 8.25743C17.7863 8.42225 17.8789 8.64581 17.8789 8.87891V25.1211C17.8789 25.3542 17.7863 25.5777 17.6215 25.7426C17.4567 25.9074 17.2331 26 17 26Z" fill="#82A93C"/>
<path d="M25.1211 17.8789H8.87891C8.64581 17.8789 8.42225 17.7863 8.25743 17.6215C8.0926 17.4567 8 17.2331 8 17C8 16.7669 8.0926 16.5433 8.25743 16.3785C8.42225 16.2137 8.64581 16.1211 8.87891 16.1211H25.1211C25.3542 16.1211 25.5777 16.2137 25.7426 16.3785C25.9074 16.5433 26 16.7669 26 17C26 17.2331 25.9074 17.4567 25.7426 17.6215C25.5777 17.7863 25.3542 17.8789 25.1211 17.8789Z" fill="#82A93C"/>
</g>
<defs>
<clipPath id="clip0_183_811">
<rect width="18" height="18" fill="white" transform="translate(8 8)"/>
</clipPath>
</defs>
</svg>
