<svg width="40" height="40" viewBox="0 0 40 40" fill="none" xmlns="http://www.w3.org/2000/svg">
<path d="M31.5989 19.2341L24.0156 11.6508C23.8113 11.4534 23.5376 11.3443 23.2536 11.3467C22.9695 11.3492 22.6978 11.4631 22.497 11.664C22.2961 11.8648 22.1822 12.1366 22.1797 12.4206C22.1772 12.7046 22.2864 12.9783 22.4838 13.1826L28.2178 18.9167H9.16634C8.87902 18.9167 8.60347 19.0308 8.40031 19.234C8.19714 19.4372 8.08301 19.7127 8.08301 20C8.08301 20.2874 8.19714 20.5629 8.40031 20.7661C8.60347 20.9692 8.87902 21.0834 9.16634 21.0834H28.2178L22.4838 26.8175C22.3803 26.9174 22.2978 27.0369 22.241 27.1691C22.1842 27.3013 22.1543 27.4434 22.1531 27.5873C22.1518 27.7311 22.1792 27.8738 22.2337 28.0069C22.2882 28.14 22.3686 28.261 22.4703 28.3627C22.572 28.4644 22.693 28.5449 22.8261 28.5993C22.9593 28.6538 23.1019 28.6812 23.2458 28.68C23.3896 28.6787 23.5318 28.6488 23.6639 28.5921C23.7961 28.5353 23.9157 28.4528 24.0156 28.3493L31.5989 20.766C31.802 20.5628 31.9161 20.2873 31.9161 20C31.9161 19.7128 31.802 19.4373 31.5989 19.2341Z" fill="white"/>
<rect x="-0.5" y="0.5" width="39" height="39" transform="matrix(-1 0 0 1 39 0)" stroke="white"/>
</svg>
