<svg width="32" height="32" viewBox="0 0 32 32" fill="none" xmlns="http://www.w3.org/2000/svg">
<rect width="32" height="32" rx="3" fill="#82A93C"/>
<path d="M13.4469 21.5484C13.3469 21.5484 13.2552 21.5318 13.1719 21.4984C13.0885 21.4651 13.0052 21.4068 12.9219 21.3234L8.39687 16.7984C8.24687 16.6484 8.17188 16.4651 8.17188 16.2484C8.17188 16.0318 8.24687 15.8484 8.39687 15.6984C8.54687 15.5484 8.72188 15.4734 8.92188 15.4734C9.12187 15.4734 9.29687 15.5484 9.44687 15.6984L13.4469 19.6984L22.5219 10.6234C22.6719 10.4734 22.851 10.3984 23.0594 10.3984C23.2677 10.3984 23.4469 10.4734 23.5969 10.6234C23.7469 10.7734 23.8219 10.9526 23.8219 11.1609C23.8219 11.3693 23.7469 11.5484 23.5969 11.6984L13.9719 21.3234C13.8885 21.4068 13.8052 21.4651 13.7219 21.4984C13.6385 21.5318 13.5469 21.5484 13.4469 21.5484Z" fill="white"/>
</svg>
