<svg width="55" height="55" viewBox="0 0 55 55" fill="none" xmlns="http://www.w3.org/2000/svg">
<circle cx="27.5" cy="27.5" r="27" stroke="white"/>
<path d="M18.1849 27.3517L24.6016 20.9351C24.7745 20.7681 25.006 20.6757 25.2464 20.6778C25.4867 20.6799 25.7166 20.7763 25.8866 20.9462C26.0565 21.1162 26.153 21.3461 26.155 21.5864C26.1571 21.8268 26.0647 22.0583 25.8978 22.2312L21.0458 27.0831H37.1663C37.4095 27.0831 37.6426 27.1797 37.8145 27.3516C37.9864 27.5235 38.083 27.7567 38.083 27.9998C38.083 28.2429 37.9864 28.4761 37.8145 28.648C37.6426 28.8199 37.4095 28.9165 37.1663 28.9165H21.0458L25.8978 33.7684C25.9853 33.8529 26.0551 33.9541 26.1032 34.0659C26.1512 34.1778 26.1765 34.2981 26.1776 34.4198C26.1786 34.5415 26.1554 34.6622 26.1093 34.7748C26.0633 34.8875 25.9952 34.9898 25.9091 35.0759C25.8231 35.162 25.7207 35.2301 25.608 35.2761C25.4954 35.3222 25.3747 35.3454 25.253 35.3444C25.1313 35.3433 25.011 35.318 24.8991 35.27C24.7873 35.2219 24.6862 35.1521 24.6016 35.0646L18.1849 28.6479C18.0131 28.476 17.9165 28.2429 17.9165 27.9998C17.9165 27.7567 18.0131 27.5236 18.1849 27.3517Z" fill="white"/>
</svg>
