<svg width="106" height="18" viewBox="0 0 106 18" fill="none" xmlns="http://www.w3.org/2000/svg">
<g clip-path="url(#clip0_183_515)">
<path d="M13.1662 15.7492C13.0462 15.7497 12.9279 15.7214 12.8212 15.6667L8.99616 13.6642L5.17116 15.6667C5.04696 15.732 4.90692 15.7611 4.76697 15.7508C4.62702 15.7405 4.49277 15.6911 4.37948 15.6083C4.2662 15.5255 4.17842 15.4126 4.12612 15.2823C4.07383 15.1521 4.05912 15.0098 4.08366 14.8717L4.83366 10.6492L1.74366 7.64918C1.64725 7.55297 1.57886 7.43233 1.54583 7.3002C1.5128 7.16807 1.51637 7.02943 1.55616 6.89918C1.59963 6.76588 1.67959 6.64744 1.78697 6.55729C1.89435 6.46715 2.02485 6.40891 2.16366 6.38918L6.43866 5.76668L8.32116 1.91918C8.38257 1.79237 8.47846 1.68543 8.59784 1.61061C8.71723 1.53578 8.85527 1.49609 8.99616 1.49609C9.13705 1.49609 9.2751 1.53578 9.39448 1.61061C9.51386 1.68543 9.60975 1.79237 9.67116 1.91918L11.5762 5.75918L15.8512 6.38168C15.99 6.40141 16.1205 6.45965 16.2278 6.5498C16.3352 6.63994 16.4152 6.75838 16.4587 6.89168C16.4985 7.02193 16.502 7.16056 16.469 7.2927C16.436 7.42483 16.3676 7.54547 16.2712 7.64168L13.1812 10.6417L13.9312 14.8642C13.9579 15.0048 13.9439 15.1501 13.8908 15.283C13.8376 15.4159 13.7475 15.5308 13.6312 15.6142C13.4954 15.7093 13.3318 15.7568 13.1662 15.7492Z" fill="#82A93C"/>
</g>
<g clip-path="url(#clip1_183_515)">
<path d="M35.1662 15.7492C35.0462 15.7497 34.9279 15.7214 34.8212 15.6667L30.9962 13.6642L27.1712 15.6667C27.047 15.732 26.9069 15.7611 26.767 15.7508C26.627 15.7405 26.4928 15.6911 26.3795 15.6083C26.2662 15.5255 26.1784 15.4126 26.1261 15.2823C26.0738 15.1521 26.0591 15.0098 26.0837 14.8717L26.8337 10.6492L23.7437 7.64918C23.6473 7.55297 23.5789 7.43233 23.5458 7.3002C23.5128 7.16807 23.5164 7.02943 23.5562 6.89918C23.5996 6.76588 23.6796 6.64744 23.787 6.55729C23.8944 6.46715 24.0249 6.40891 24.1637 6.38918L28.4387 5.76668L30.3212 1.91918C30.3826 1.79237 30.4785 1.68543 30.5978 1.61061C30.7172 1.53578 30.8553 1.49609 30.9962 1.49609C31.1371 1.49609 31.2751 1.53578 31.3945 1.61061C31.5139 1.68543 31.6097 1.79237 31.6712 1.91918L33.5762 5.75918L37.8512 6.38168C37.99 6.40141 38.1205 6.45965 38.2278 6.5498C38.3352 6.63994 38.4152 6.75838 38.4587 6.89168C38.4985 7.02193 38.502 7.16056 38.469 7.2927C38.436 7.42483 38.3676 7.54547 38.2712 7.64168L35.1812 10.6417L35.9312 14.8642C35.9579 15.0048 35.9439 15.1501 35.8908 15.283C35.8376 15.4159 35.7475 15.5308 35.6312 15.6142C35.4954 15.7093 35.3318 15.7568 35.1662 15.7492Z" fill="#82A93C"/>
</g>
<g clip-path="url(#clip2_183_515)">
<path d="M57.1662 15.7492C57.0462 15.7497 56.9279 15.7214 56.8212 15.6667L52.9962 13.6642L49.1712 15.6667C49.047 15.732 48.9069 15.7611 48.767 15.7508C48.627 15.7405 48.4928 15.6911 48.3795 15.6083C48.2662 15.5255 48.1784 15.4126 48.1261 15.2823C48.0738 15.1521 48.0591 15.0098 48.0837 14.8717L48.8337 10.6492L45.7437 7.64918C45.6473 7.55297 45.5789 7.43233 45.5458 7.3002C45.5128 7.16807 45.5164 7.02943 45.5562 6.89918C45.5996 6.76588 45.6796 6.64744 45.787 6.55729C45.8944 6.46715 46.0249 6.40891 46.1637 6.38918L50.4387 5.76668L52.3212 1.91918C52.3826 1.79237 52.4785 1.68543 52.5978 1.61061C52.7172 1.53578 52.8553 1.49609 52.9962 1.49609C53.1371 1.49609 53.2751 1.53578 53.3945 1.61061C53.5139 1.68543 53.6097 1.79237 53.6712 1.91918L55.5762 5.75918L59.8512 6.38168C59.99 6.40141 60.1205 6.45965 60.2278 6.5498C60.3352 6.63994 60.4152 6.75838 60.4587 6.89168C60.4985 7.02193 60.502 7.16056 60.469 7.2927C60.436 7.42483 60.3676 7.54547 60.2712 7.64168L57.1812 10.6417L57.9312 14.8642C57.9579 15.0048 57.9439 15.1501 57.8908 15.283C57.8376 15.4159 57.7475 15.5308 57.6312 15.6142C57.4954 15.7093 57.3318 15.7568 57.1662 15.7492Z" fill="#82A93C"/>
</g>
<g clip-path="url(#clip3_183_515)">
<path d="M79.1662 15.7492C79.0462 15.7497 78.9279 15.7214 78.8212 15.6667L74.9962 13.6642L71.1712 15.6667C71.047 15.732 70.9069 15.7611 70.767 15.7508C70.627 15.7405 70.4928 15.6911 70.3795 15.6083C70.2662 15.5255 70.1784 15.4126 70.1261 15.2823C70.0738 15.1521 70.0591 15.0098 70.0837 14.8717L70.8337 10.6492L67.7437 7.64918C67.6473 7.55297 67.5789 7.43233 67.5458 7.3002C67.5128 7.16807 67.5164 7.02943 67.5562 6.89918C67.5996 6.76588 67.6796 6.64744 67.787 6.55729C67.8944 6.46715 68.0249 6.40891 68.1637 6.38918L72.4387 5.76668L74.3212 1.91918C74.3826 1.79237 74.4785 1.68543 74.5978 1.61061C74.7172 1.53578 74.8553 1.49609 74.9962 1.49609C75.1371 1.49609 75.2751 1.53578 75.3945 1.61061C75.5139 1.68543 75.6097 1.79237 75.6712 1.91918L77.5762 5.75918L81.8512 6.38168C81.99 6.40141 82.1205 6.45965 82.2278 6.5498C82.3352 6.63994 82.4152 6.75838 82.4587 6.89168C82.4985 7.02193 82.502 7.16056 82.469 7.2927C82.436 7.42483 82.3676 7.54547 82.2712 7.64168L79.1812 10.6417L79.9312 14.8642C79.9579 15.0048 79.9439 15.1501 79.8908 15.283C79.8376 15.4159 79.7475 15.5308 79.6312 15.6142C79.4954 15.7093 79.3318 15.7568 79.1662 15.7492Z" fill="#82A93C"/>
</g>
<g clip-path="url(#clip4_183_515)">
<path d="M101.166 15.7492C101.046 15.7497 100.928 15.7214 100.821 15.6667L96.9962 13.6642L93.1712 15.6667C93.047 15.732 92.9069 15.7611 92.767 15.7508C92.627 15.7405 92.4928 15.6911 92.3795 15.6083C92.2662 15.5255 92.1784 15.4126 92.1261 15.2823C92.0738 15.1521 92.0591 15.0098 92.0837 14.8717L92.8337 10.6492L89.7437 7.64918C89.6473 7.55297 89.5789 7.43233 89.5458 7.3002C89.5128 7.16807 89.5164 7.02943 89.5562 6.89918C89.5996 6.76588 89.6796 6.64744 89.787 6.55729C89.8944 6.46715 90.0249 6.40891 90.1637 6.38918L94.4387 5.76668L96.3212 1.91918C96.3826 1.79237 96.4785 1.68543 96.5978 1.61061C96.7172 1.53578 96.8553 1.49609 96.9962 1.49609C97.1371 1.49609 97.2751 1.53578 97.3945 1.61061C97.5139 1.68543 97.6097 1.79237 97.6712 1.91918L99.5762 5.75918L103.851 6.38168C103.99 6.40141 104.12 6.45965 104.228 6.5498C104.335 6.63994 104.415 6.75838 104.459 6.89168C104.498 7.02193 104.502 7.16056 104.469 7.2927C104.436 7.42483 104.368 7.54547 104.271 7.64168L101.181 10.6417L101.931 14.8642C101.958 15.0048 101.944 15.1501 101.891 15.283C101.838 15.4159 101.748 15.5308 101.631 15.6142C101.495 15.7093 101.332 15.7568 101.166 15.7492Z" fill="#82A93C"/>
</g>
<defs>
<clipPath id="clip0_183_515">
<rect width="18" height="18" fill="white"/>
</clipPath>
<clipPath id="clip1_183_515">
<rect width="18" height="18" fill="white" transform="translate(22)"/>
</clipPath>
<clipPath id="clip2_183_515">
<rect width="18" height="18" fill="white" transform="translate(44)"/>
</clipPath>
<clipPath id="clip3_183_515">
<rect width="18" height="18" fill="white" transform="translate(66)"/>
</clipPath>
<clipPath id="clip4_183_515">
<rect width="18" height="18" fill="white" transform="translate(88)"/>
</clipPath>
</defs>
</svg>
