<svg width="120" height="91" viewBox="0 0 120 91" fill="none" xmlns="http://www.w3.org/2000/svg">
<path opacity="0.1" d="M22.711 42.1182C24.9616 41.5034 27.0077 41.1959 28.8491 41.1959C35.601 41.1959 41.3299 43.6554 46.0358 48.5743C50.9463 53.4932 53.4015 59.5394 53.4015 66.7128C53.4015 73.4763 50.844 79.2151 45.7289 83.929C40.8184 88.643 34.6803 91 27.3146 91C18.9258 91 12.2762 88.2331 7.36573 82.6993C2.45524 76.9606 0 69.4797 0 60.2568C0 43.8604 4.70588 30.5383 14.1176 20.2905C23.734 10.0428 36.4194 3.27929 52.1739 0L53.0946 3.38177C44.7059 7.68581 37.5448 13.3221 31.6113 20.2905C25.8824 27.0541 22.9156 34.33 22.711 42.1182ZM89.3095 42.1182C91.5601 41.5034 93.6061 41.1959 95.4476 41.1959C102.199 41.1959 107.928 43.6554 112.634 48.5743C117.545 53.4932 120 59.5394 120 66.7128C120 73.4763 117.442 79.2151 112.327 83.929C107.212 88.643 101.074 91 93.913 91C85.5243 91 78.7724 88.2331 73.6573 82.6993C68.7468 76.9606 66.2916 69.4797 66.2916 60.2568C66.2916 43.8604 70.9974 30.5383 80.4092 20.2905C90.0256 10.0428 102.711 3.27929 118.465 0L119.386 3.38177C110.997 7.68581 103.939 13.3221 98.2097 20.2905C92.4808 27.259 89.5141 34.5349 89.3095 42.1182Z" fill="black"/>
</svg>
