<svg width="86" height="86" viewBox="0 0 86 86" fill="none" xmlns="http://www.w3.org/2000/svg">
<circle cx="43" cy="43" r="43" fill="white"/>
<path d="M60.8444 41.822L49.1777 30.1554C48.8633 29.8518 48.4423 29.6838 48.0053 29.6876C47.5684 29.6914 47.1503 29.8666 46.8413 30.1757C46.5323 30.4847 46.357 30.9027 46.3532 31.3397C46.3494 31.7767 46.5174 32.1977 46.821 32.512L55.6427 41.3337H26.3327C25.8907 41.3337 25.4667 41.5093 25.1542 41.8218C24.8416 42.1344 24.666 42.5583 24.666 43.0004C24.666 43.4424 24.8416 43.8663 25.1542 44.1789C25.4667 44.4914 25.8907 44.667 26.3327 44.667H55.6427L46.821 53.4887C46.6618 53.6424 46.5349 53.8263 46.4475 54.0297C46.3602 54.233 46.3142 54.4517 46.3123 54.673C46.3103 54.8943 46.3525 55.1138 46.4363 55.3186C46.5201 55.5234 46.6439 55.7095 46.8004 55.866C46.9568 56.0225 47.1429 56.1463 47.3478 56.2301C47.5526 56.3139 47.7721 56.356 47.9934 56.3541C48.2147 56.3522 48.4334 56.3062 48.6367 56.2189C48.84 56.1315 49.0239 56.0045 49.1777 55.8454L60.8444 44.1787C61.1568 43.8661 61.3323 43.4423 61.3323 43.0004C61.3323 42.5584 61.1568 42.1346 60.8444 41.822Z" fill="#82A93C"/>
</svg>
