<svg width="86" height="86" viewBox="0 0 86 86" fill="none" xmlns="http://www.w3.org/2000/svg">
<circle cx="43" cy="43" r="43" fill="white"/>
<path d="M25.1556 41.822L36.8223 30.1554C37.1367 29.8518 37.5577 29.6838 37.9947 29.6876C38.4316 29.6914 38.8497 29.8666 39.1587 30.1757C39.4677 30.4847 39.643 30.9027 39.6468 31.3397C39.6506 31.7767 39.4826 32.1977 39.179 32.512L30.3573 41.3337H59.6673C60.1093 41.3337 60.5333 41.5093 60.8458 41.8218C61.1584 42.1344 61.334 42.5583 61.334 43.0004C61.334 43.4424 61.1584 43.8663 60.8458 44.1789C60.5333 44.4914 60.1093 44.667 59.6673 44.667H30.3573L39.179 53.4887C39.3382 53.6424 39.4651 53.8263 39.5525 54.0297C39.6398 54.233 39.6858 54.4517 39.6877 54.673C39.6897 54.8943 39.6475 55.1138 39.5637 55.3186C39.4799 55.5234 39.3561 55.7095 39.1996 55.866C39.0432 56.0225 38.8571 56.1463 38.6522 56.2301C38.4474 56.3139 38.2279 56.356 38.0066 56.3541C37.7853 56.3522 37.5666 56.3062 37.3633 56.2189C37.16 56.1315 36.9761 56.0045 36.8223 55.8454L25.1556 44.1787C24.8432 43.8661 24.6677 43.4423 24.6677 43.0004C24.6677 42.5584 24.8432 42.1346 25.1556 41.822Z" fill="#82A93C"/>
</svg>
