<svg width="26" height="26" viewBox="0 0 26 26" fill="none" xmlns="http://www.w3.org/2000/svg">
<path d="M12.9998 20.5836C12.7846 20.5849 12.5739 20.522 12.3946 20.4031C12.2153 20.2841 12.0755 20.1144 11.993 19.9157C11.9105 19.717 11.889 19.4982 11.9313 19.2872C11.9736 19.0762 12.0778 18.8826 12.2306 18.7311L17.9723 13.0003L12.2306 7.26944C12.0531 7.0622 11.9604 6.79561 11.9709 6.52297C11.9815 6.25032 12.0945 5.99168 12.2874 5.79875C12.4804 5.60581 12.739 5.49278 13.0116 5.48225C13.2843 5.47172 13.5509 5.56446 13.7581 5.74194L20.2581 12.2419C20.4599 12.4449 20.5731 12.7195 20.5731 13.0057C20.5731 13.2919 20.4599 13.5665 20.2581 13.7694L13.7581 20.2694C13.5563 20.4696 13.284 20.5824 12.9998 20.5836Z" fill="white"/>
<path d="M6.49979 20.5832C6.28461 20.5845 6.07394 20.5216 5.89463 20.4027C5.71531 20.2837 5.57549 20.114 5.49297 19.9153C5.41046 19.7166 5.389 19.4978 5.43132 19.2868C5.47365 19.0758 5.57784 18.8822 5.73062 18.7307L11.4723 12.9999L5.73062 7.26904C5.52663 7.06505 5.41202 6.78837 5.41202 6.49988C5.41202 6.21138 5.52663 5.9347 5.73062 5.73071C5.93462 5.52671 6.2113 5.41211 6.49979 5.41211C6.78828 5.41211 7.06496 5.52671 7.26896 5.73071L13.769 12.2307C13.9707 12.4337 14.084 12.7083 14.084 12.9945C14.084 13.2807 13.9707 13.5552 13.769 13.7582L7.26896 20.2582C7.16862 20.3606 7.04898 20.442 6.91694 20.4978C6.78491 20.5536 6.64312 20.5826 6.49979 20.5832Z" fill="white"/>
</svg>
